Run_50001
nRows=4
nColumns=164

# SIMM Motion File Header:
name Run_50001
datacolumns 164
datarows 4
otherdata 1
range 4.11666700 4.14166700
endheader
time	pelvis_tilt	pelvis_list	pelvis_rotation	pelvis_tx	pelvis_ty	pelvis_tz	hip_flexion_r	hip_adduction_r	hip_rotation_r	knee_angle_r	ankle_angle_r	hip_flexion_l	hip_adduction_l	hip_rotation_l	knee_angle_l	ankle_angle_l	lumbar_extension	lumbar_bending	lumbar_rotation	arm_flex_r	arm_add_r	arm_rot_r	elbow_flex_r	pro_sup_r	arm_flex_l	arm_add_l	arm_rot_l	elbow_flex_l	pro_sup_l	subtalar_angle_r	mtp_angle_r	subtalar_angle_l	mtp_angle_l	wrist_flex_r	wrist_dev_r	wrist_flex_l	wrist_dev_l	LASI_tx	LASI_ty	LASI_tz	RASI_tx	RASI_ty	RASI_tz	LPSI_tx	LPSI_ty	LPSI_tz	RPSI_tx	RPSI_ty	RPSI_tz	RTH1_tx	RTH1_ty	RTH1_tz	RTH2_tx	RTH2_ty	RTH2_tz	RTH3_tx	RTH3_ty	RTH3_tz	LTH1_tx	LTH1_ty	LTH1_tz	LTH2_tx	LTH2_ty	LTH2_tz	LTH3_tx	LTH3_ty	LTH3_tz	RTB1_tx	RTB1_ty	RTB1_tz	RTB2_tx	RTB2_ty	RTB2_tz	RTB3_tx	RTB3_ty	RTB3_tz	LTB1_tx	LTB1_ty	LTB1_tz	LTB2_tx	LTB2_ty	LTB2_tz	LTB3_tx	LTB3_ty	LTB3_tz	RCAL_tx	RCAL_ty	RCAL_tz	RTOE_tx	RTOE_ty	RTOE_tz	RMT5_tx	RMT5_ty	RMT5_tz	LCAL_tx	LCAL_ty	LCAL_tz	LTOE_tx	LTOE_ty	LTOE_tz	LMT5_tx	LMT5_ty	LMT5_tz	LACR_tx	LACR_ty	LACR_tz	RACR_tx	RACR_ty	RACR_tz	CLAV_tx	CLAV_ty	CLAV_tz	C7_tx	C7_ty	C7_tz	RUA1_tx	RUA1_ty	RUA1_tz	RUA2_tx	RUA2_ty	RUA2_tz	RUA3_tx	RUA3_ty	RUA3_tz	RLEL_tx	RLEL_ty	RLEL_tz	RMEL_tx	RMEL_ty	RMEL_tz	LUA1_tx	LUA1_ty	LUA1_tz	LUA2_tx	LUA2_ty	LUA2_tz	LUA3_tx	LUA3_ty	LUA3_tz	LLEL_tx	LLEL_ty	LLEL_tz	LMEL_tx	LMEL_ty	LMEL_tz	RFAsuperior_tx	RFAsuperior_ty	RFAsuperior_tz	RFAradius_tx	RFAradius_ty	RFAradius_tz	RFAulna_tx	RFAulna_ty	RFAulna_tz	LFAsuperior_tx	LFAsuperior_ty	LFAsuperior_tz	LFAradius_tx	LFAradius_ty	LFAradius_tz	LFAulna_tx	LFAulna_ty	LFAulna_tz
      4.11666700	     -4.89400829	     -6.16554808	     -4.42847860	      1.10604923	      0.95790514	     -0.31565715	     28.79626964	     14.30188943	      1.27990667	    -43.75562094	     12.50888541	      9.53921229	     -6.08695266	     -5.15231217	   -131.36539675	    -11.28063324	     -6.75341715	     11.45056733	      2.60889779	    -33.72999917	    -14.45940592	    -14.09662335	     77.17637740	     63.24136707	    -34.58920661	    -18.06844597	      4.44560310	     85.28836560	     92.50301117	      0.00000000	      0.00000000	      0.00000000	      0.00000000	      0.00000000	      0.00000000	      0.00000000	      0.00000000	      1.12255104	      0.96575451	     -0.42905550	      1.10469875	      0.98067745	     -0.19415652	      0.95373618	      1.01063996	     -0.38283089	      0.94263098	      1.01327535	     -0.28513665	      1.07026941	      0.82191792	     -0.14482812	      1.18255711	      0.70007200	     -0.17421832	      1.15287649	      0.59683449	     -0.20092536	      1.04764808	      0.78963744	     -0.48936879	      1.11837444	      0.68792521	     -0.47816189	      1.04657384	      0.57425489	     -0.46580766	      1.21559609	      0.37851286	     -0.28285499	      1.15387236	      0.33074779	     -0.22557710	      1.14830059	      0.21046060	     -0.29652312	      0.94177035	      0.47776810	     -0.41421405	      0.88229865	      0.57430505	     -0.45876012	      0.78390809	      0.60011822	     -0.39542520	      0.98770555	      0.09247368	     -0.32647941	      1.20229501	      0.07362578	     -0.33858767	      1.17902426	      0.04674773	     -0.23096050	      0.75680760	      0.76012347	     -0.37717480	      0.60499779	      0.61756063	     -0.35823096	      0.59727277	      0.64805359	     -0.46283331	      1.11209710	      1.45713307	     -0.47606313	      1.08949998	      1.42014859	     -0.11062330	      1.16981651	      1.39344637	     -0.26681977	      1.06058275	      1.48392468	     -0.30268976	      1.04644624	      1.34450264	     -0.06566406	      1.03082100	      1.25831941	     -0.08002021	      0.94448707	      1.27702916	     -0.07289818	      0.88990378	      1.18172793	     -0.05201585	      0.88071132	      1.17951345	     -0.11778027	      1.06996371	      1.39714704	     -0.53470421	      0.99611774	      1.36520292	     -0.51645795	      1.03497408	      1.29954857	     -0.56374147	      0.93897570	      1.23618504	     -0.60672266	      0.90261889	      1.23966160	     -0.54341946	      0.96391513	      1.12176726	     -0.03243741	      1.07096421	      0.97702949	     -0.04253407	      1.01332029	      0.94053119	     -0.05723231	      0.99827983	      1.17427824	     -0.59861106	      1.09876630	      1.02775996	     -0.50758135	      1.05319080	      0.99584679	     -0.54815022
      4.12500000	     -5.49655142	     -6.26762750	     -4.29882691	      1.10205297	      0.95152694	     -0.31477105	     28.12249595	     14.84010098	      1.19730194	    -45.88487923	     15.39944041	     14.22404655	     -6.93620486	     -4.42200176	   -135.13713316	    -10.39800324	     -6.42023683	     11.55525137	      4.19261149	    -31.42331928	    -14.70671185	    -12.95948963	     77.24524971	     62.88477017	    -34.48284395	    -18.28595366	      4.65614027	     81.08542573	     91.74283650	      0.00000000	      0.00000000	      0.00000000	      0.00000000	      0.00000000	      0.00000000	      0.00000000	      0.00000000	      1.11863069	      0.95970581	     -0.42810341	      1.10207026	      0.97373388	     -0.19312334	      0.94974578	      1.00622628	     -0.37987788	      0.93901825	      1.00921112	     -0.28225735	      1.06175524	      0.81554787	     -0.14527817	      1.17249701	      0.69200299	     -0.17580196	      1.14031723	      0.58982179	     -0.20468545	      1.05282384	      0.78474857	     -0.48944737	      1.13069088	      0.68685700	     -0.47984492	      1.06764100	      0.56819007	     -0.47069045	      1.19346391	      0.37118116	     -0.28844525	      1.12927385	      0.32607172	     -0.23103486	      1.11683315	      0.20705248	     -0.30120864	      0.96801916	      0.47517133	     -0.41569934	      0.90783185	      0.56924652	     -0.46174865	      0.81037278	      0.59557669	     -0.39746322	      0.94980793	      0.09419688	     -0.33059670	      1.16409378	      0.07145684	     -0.34076278	      1.13945759	      0.04726883	     -0.23326712	      0.77925917	      0.75699548	     -0.37864703	      0.63128784	      0.61038059	     -0.35936002	      0.62323938	      0.63989067	     -0.46428833	      1.10614861	      1.45146881	     -0.47647683	      1.09191066	      1.41434226	     -0.10934177	      1.16964133	      1.38848565	     -0.26842334	      1.05887530	      1.47874379	     -0.30150947	      1.05339461	      1.33417854	     -0.06438180	      1.03957380	      1.24827540	     -0.07962993	      0.95350440	      1.26388665	     -0.06647439	      0.90317245	      1.16579522	     -0.04548080	      0.89048578	      1.16379540	     -0.11058995	      1.06221826	      1.39154580	     -0.53382352	      0.98871478	      1.35873847	     -0.51358559	      1.02596258	      1.29443230	     -0.56220464	      0.92778026	      1.23192419	     -0.60340869	      0.89309522	      1.23503447	     -0.53945183	      0.98129610	      1.10974395	     -0.03112811	      1.09183675	      0.97054692	     -0.04649853	      1.03492222	      0.93142697	     -0.05951352	      0.98451100	      1.16725022	     -0.59921185	      1.07836947	      1.01039977	     -0.51744345	      1.02831299	      0.98388251	     -0.55723369
      4.13333300	     -6.14842077	     -6.36856840	     -4.22108579	      1.09818476	      0.94657487	     -0.31385336	     26.95384914	     15.32396513	      1.37403185	    -46.94494814	     17.74605017	     19.29276383	     -7.77217873	     -3.62864379	   -138.04150212	     -9.55307791	     -6.07785901	     11.60021900	      5.95430114	    -29.21609328	    -14.87702920	    -12.15637332	     77.79965141	     62.39187916	    -34.44704296	    -18.52361817	      4.64927765	     77.45672537	     90.92655296	      0.00000000	      0.00000000	      0.00000000	      0.00000000	      0.00000000	      0.00000000	      0.00000000	      0.00000000	      1.11464094	      0.95475850	     -0.42738688	      1.09938868	      0.96828679	     -0.19180682	      0.94597444	      1.00322684	     -0.37728004	      0.93561045	      1.00663212	     -0.27977763	      1.05231389	      0.81092148	     -0.14641345	      1.16054515	      0.68459016	     -0.17762494	      1.12477265	      0.58373325	     -0.20790849	      1.05805573	      0.78241009	     -0.48954398	      1.14414188	      0.68918251	     -0.48112169	      1.09062735	      0.56573844	     -0.47513404	      1.16960117	      0.36406348	     -0.29211244	      1.10347897	      0.32108329	     -0.23494458	      1.08457556	      0.20345296	     -0.30507529	      0.99586740	      0.47357725	     -0.41820046	      0.93391658	      0.56481289	     -0.46482465	      0.83634574	      0.58943229	     -0.39924435	      0.91263472	      0.09592226	     -0.33335241	      1.12641026	      0.06982376	     -0.34254568	      1.10097844	      0.04742442	     -0.23504400	      0.79772054	      0.75163437	     -0.37995883	      0.65713112	      0.59779880	     -0.36039229	      0.64770663	      0.62664274	     -0.46534472	      1.10028067	      1.44687733	     -0.47677452	      1.09498019	      1.41000463	     -0.10855008	      1.16920109	      1.38481082	     -0.27026432	      1.05738269	      1.47481678	     -0.30056631	      1.06090440	      1.32653364	     -0.06381991	      1.04913074	      1.24051673	     -0.07981552	      0.96360343	      1.25355188	     -0.06155576	      0.91779185	      1.15233200	     -0.03963625	      0.90191539	      1.15021115	     -0.10427675	      1.05445142	      1.38751515	     -0.53273200	      0.98144448	      1.35323068	     -0.50981564	      1.01650141	      1.29131387	     -0.56072164	      0.91600308	      1.22953035	     -0.59995194	      0.88300979	      1.23167886	     -0.53543427	      0.99942491	      1.10083622	     -0.03052964	      1.11398282	      0.96755244	     -0.05111591	      1.05857757	      0.92553890	     -0.06286579	      0.97106637	      1.16337889	     -0.59920648	      1.05794316	      0.99721943	     -0.52722845	      1.00399115	      0.97599091	     -0.56523506
      4.14166700	     -6.65814272	     -6.36805481	     -4.16302278	      1.09489576	      0.94335201	     -0.31321029	     25.09205097	     15.59535028	      1.84613377	    -47.04284833	     19.80999075	     24.40575844	     -8.38812803	     -2.88802958	   -139.92572741	     -8.68951963	     -5.86970821	     11.48440142	      7.78259105	    -27.22874895	    -15.01517415	    -11.76462280	     78.96600865	     62.12113908	    -34.67801045	    -18.75560772	      4.27527584	     74.66873738	     90.13578308	      0.00000000	      0.00000000	      0.00000000	      0.00000000	      0.00000000	      0.00000000	      0.00000000	      0.00000000	      1.11091499	      0.95148761	     -0.42730025	      1.09676315	      0.96449136	     -0.19062564	      0.94266312	      1.00153242	     -0.37545823	      0.93274467	      1.00533020	     -0.27815140	      1.04322695	      0.80756707	     -0.14782814	      1.14724145	      0.67766874	     -0.17928120	      1.10731875	      0.57821916	     -0.21028531	      1.06330176	      0.78240341	     -0.48994730	      1.15825715	      0.69494958	     -0.48191795	      1.11456798	      0.56787263	     -0.47921492	      1.14393598	      0.35691017	     -0.29415426	      1.07632277	      0.31607667	     -0.23717792	      1.05132140	      0.19974752	     -0.30778621	      1.02503844	      0.47313272	     -0.42143628	      0.95975322	      0.56113121	     -0.46748874	      0.86116465	      0.58192133	     -0.40047738	      0.87568881	      0.09739122	     -0.33457572	      1.08892279	      0.06925015	     -0.34394610	      1.06327596	      0.04740565	     -0.23609519	      0.81204169	      0.74367483	     -0.38096423	      0.68254686	      0.58028604	     -0.36120423	      0.67113018	      0.60830657	     -0.46609810	      1.09457701	      1.44358123	     -0.47696076	      1.09871972	      1.40745788	     -0.10839217	      1.16849452	      1.38233428	     -0.27233986	      1.05603709	      1.47226194	     -0.29980446	      1.06832912	      1.32203319	     -0.06391286	      1.05907726	      1.23551647	     -0.08037283	      0.97398249	      1.24638320	     -0.05833050	      0.93311284	      1.14214597	     -0.03475429	      0.91433036	      1.13959797	     -0.09914515	      1.04661954	      1.38536465	     -0.53158026	      0.97458619	      1.34930891	     -0.50513459	      1.00650721	      1.29048622	     -0.55934335	      0.90359245	      1.22985132	     -0.59644220	      0.87275674	      1.23042222	     -0.53121718	      1.01768135	      1.09549810	     -0.03059907	      1.13686338	      0.96864017	     -0.05641392	      1.08360323	      0.92351300	     -0.06697361	      0.95776306	      1.16298079	     -0.59871661	      1.03795639	      0.98908730	     -0.53662688	      0.98081679	      0.97233450	     -0.57200047
